<svg width="180" height="48" viewBox="0 0 180 48" fill="none" xmlns="http://www.w3.org/2000/svg">
<path d="M179 42.3401C179 44.8906 176.708 46.9566 173.874 46.9566H6.13243C3.2995 46.9566 1 44.8906 1 42.3401V5.52554C1 2.97625 3.2995 0.903076 6.13243 0.903076H173.873C176.709 0.903076 178.999 2.97625 178.999 5.52554L179 42.3401Z" fill="black"/>
<path d="M173.333 0.958691C176.42 0.958691 178.932 3.21257 178.932 5.98244V41.8771C178.932 44.6469 176.42 46.9008 173.333 46.9008H6.66667C3.58 46.9008 1.06833 44.6469 1.06833 41.8771V5.98244C1.06833 3.21257 3.58 0.958691 6.66667 0.958691H173.333ZM173.333 5.79422e-06H6.66667C3.00167 5.79422e-06 0 2.6936 0 5.98244V41.8771C0 45.1659 3.00167 47.8595 6.66667 47.8595H173.333C176.998 47.8595 180 45.1659 180 41.8771V5.98244C180 2.6936 176.998 5.79422e-06 173.333 5.79422e-06Z" fill="#A6A6A6"/>
<path d="M40.1714 23.6711C40.1328 19.8148 43.6901 17.9387 43.8528 17.8514C41.8381 15.2155 38.7154 14.8554 37.6181 14.8267C34.9954 14.579 32.4514 16.2349 31.1154 16.2349C29.7528 16.2349 27.6954 14.8506 25.4781 14.8913C22.6248 14.9308 19.9554 16.4132 18.4914 18.7152C15.4701 23.4091 17.7234 30.3068 20.6181 34.1009C22.0661 35.959 23.7581 38.0337 25.9728 37.9607C28.1394 37.8806 28.9488 36.7212 31.5634 36.7212C34.1541 36.7212 34.9141 37.9607 37.1728 37.9141C39.4981 37.8806 40.9621 36.0476 42.3594 34.1727C44.0328 32.0429 44.7048 29.9455 44.7314 29.8378C44.6768 29.821 40.2154 28.2931 40.1714 23.6711Z" fill="white"/>
<path d="M35.9048 12.3308C37.0701 11.023 37.8674 9.24385 37.6461 7.43835C35.9594 7.50536 33.8501 8.48528 32.6354 9.76433C31.5608 10.8914 30.6008 12.7388 30.8488 14.4761C32.7434 14.6029 34.6888 13.6182 35.9048 12.3308Z" fill="white"/>
<path d="M71.5259 37.6937H68.4979L66.8392 33.0167H61.0739L59.4939 37.6937H56.5459L62.2579 21.7709H65.7859L71.5259 37.6937ZM66.3392 31.0544L64.8392 26.8966C64.6806 26.4719 64.3832 25.4716 63.9446 23.897H63.8912C63.7166 24.5742 63.4352 25.5745 63.0486 26.8966L61.5752 31.0544H66.3392Z" fill="white"/>
<path d="M86.2149 31.8122C86.2149 33.7649 85.6269 35.3083 84.4509 36.4414C83.3976 37.45 82.0896 37.9538 80.5282 37.9538C78.8429 37.9538 77.6322 37.4106 76.8949 36.3242H76.8416V42.3724H73.9989V29.9923C73.9989 28.7647 73.9629 27.5048 73.8936 26.2126H76.3936L76.5522 28.0325H76.6056C77.5536 26.6613 78.9922 25.9769 80.9229 25.9769C82.4322 25.9769 83.6922 26.5118 84.7002 27.5826C85.7109 28.6547 86.2149 30.0641 86.2149 31.8122ZM83.3189 31.9055C83.3189 30.788 83.0389 29.8667 82.4762 29.1416C81.8616 28.3855 81.0362 28.0074 80.0016 28.0074C79.3002 28.0074 78.6629 28.2179 78.0936 28.6331C77.5229 29.0519 77.1496 29.5987 76.9749 30.2759C76.8869 30.5918 76.8429 30.8502 76.8429 31.0536V32.968C76.8429 33.8032 77.1282 34.5079 77.6989 35.0834C78.2696 35.6589 79.0109 35.9461 79.9229 35.9461C80.9936 35.9461 81.8269 35.5751 82.4229 34.8357C83.0202 34.0951 83.3189 33.1188 83.3189 31.9055Z" fill="white"/>
<path d="M100.93 31.8122C100.93 33.7649 100.342 35.3083 99.165 36.4414C98.113 37.45 96.805 37.9538 95.2437 37.9538C93.5584 37.9538 92.3477 37.4106 91.6117 36.3242H91.5584V42.3724H88.7157V29.9923C88.7157 28.7647 88.6797 27.5048 88.6104 26.2126H91.1104L91.269 28.0325H91.3223C92.269 26.6613 93.7077 25.9769 95.6397 25.9769C97.1477 25.9769 98.4077 26.5118 99.4184 27.5826C100.425 28.6547 100.93 30.0641 100.93 31.8122ZM98.0344 31.9055C98.0344 30.788 97.753 29.8667 97.1904 29.1416C96.5757 28.3855 95.753 28.0074 94.717 28.0074C94.0144 28.0074 93.3784 28.2179 92.8077 28.6331C92.237 29.0519 91.865 29.5987 91.6903 30.2759C91.6037 30.5918 91.5584 30.8502 91.5584 31.0536V32.968C91.5584 33.8032 91.8437 34.5079 92.4117 35.0834C92.9823 35.6577 93.7237 35.9461 94.6384 35.9461C95.709 35.9461 96.5424 35.5751 97.1384 34.8357C97.7357 34.0951 98.0344 33.1188 98.0344 31.9055Z" fill="white"/>
<path d="M117.384 33.2285C117.384 34.5829 116.86 35.6849 115.808 36.5356C114.652 37.4652 113.043 37.9295 110.975 37.9295C109.065 37.9295 107.535 37.5992 106.376 36.9376L107.035 34.8114C108.283 35.4886 109.652 35.8284 111.144 35.8284C112.215 35.8284 113.048 35.6107 113.647 35.1776C114.243 34.7444 114.54 34.1629 114.54 33.4379C114.54 32.7918 114.295 32.2474 113.803 31.8059C113.313 31.3644 112.496 30.954 111.355 30.5747C108.248 29.5349 106.696 28.0118 106.696 26.0089C106.696 24.6999 107.24 23.6267 108.329 22.7915C109.415 21.9552 110.863 21.5376 112.673 21.5376C114.288 21.5376 115.629 21.7901 116.7 22.2938L115.989 24.3733C114.989 23.8851 113.859 23.641 112.593 23.641C111.593 23.641 110.812 23.8624 110.252 24.3027C109.779 24.6963 109.541 25.1761 109.541 25.7444C109.541 26.3738 109.812 26.8943 110.356 27.3035C110.829 27.6816 111.689 28.0908 112.937 28.5323C114.464 29.0838 115.585 29.7288 116.307 30.4682C117.025 31.2052 117.384 32.1277 117.384 33.2285Z" fill="white"/>
<path d="M126.783 28.1264H123.65V33.7008C123.65 35.1187 124.202 35.827 125.309 35.827C125.817 35.827 126.238 35.7875 126.571 35.7085L126.65 37.6456C126.09 37.8335 125.353 37.928 124.439 37.928C123.317 37.928 122.439 37.6205 121.806 37.0067C121.175 36.3917 120.858 35.3603 120.858 33.9114V28.124H118.991V26.2096H120.858V24.1074L123.65 23.3512V26.2096H126.783V28.1264Z" fill="white"/>
<path d="M140.921 31.8585C140.921 33.6233 140.358 35.0723 139.235 36.2054C138.058 37.3719 136.495 37.9534 134.547 37.9534C132.67 37.9534 131.175 37.3947 130.061 36.2771C128.946 35.1596 128.389 33.749 128.389 32.0488C128.389 30.2696 128.962 28.8123 130.113 27.6792C131.261 26.5449 132.81 25.9778 134.758 25.9778C136.635 25.9778 138.146 26.5365 139.286 27.6553C140.377 28.7405 140.921 30.1416 140.921 31.8585ZM137.971 31.9411C137.971 30.8822 137.719 29.9741 137.209 29.2167C136.613 28.3002 135.761 27.8431 134.657 27.8431C133.514 27.8431 132.646 28.3014 132.05 29.2167C131.539 29.9752 131.287 30.8977 131.287 31.9889C131.287 33.0478 131.539 33.956 132.05 34.7121C132.665 35.6286 133.523 36.0857 134.631 36.0857C135.717 36.0857 136.569 35.6191 137.183 34.6882C137.707 33.9165 137.971 32.9988 137.971 31.9411Z" fill="white"/>
<path d="M150.16 28.4561C149.878 28.4094 149.578 28.3855 149.264 28.3855C148.264 28.3855 147.49 28.7241 146.946 29.4025C146.473 30.0007 146.236 30.7569 146.236 31.6698V37.6941H143.394L143.421 29.8284C143.421 28.5051 143.385 27.3002 143.314 26.2138H145.79L145.894 28.4106H145.973C146.273 27.6556 146.746 27.0478 147.394 26.5919C148.028 26.1815 148.712 25.9769 149.449 25.9769C149.712 25.9769 149.949 25.9937 150.16 26.0236V28.4561Z" fill="white"/>
<path d="M162.874 31.41C162.874 31.867 162.84 32.2523 162.77 32.567H154.242C154.275 33.7013 154.687 34.5687 155.479 35.167C156.198 35.7018 157.127 35.9698 158.268 35.9698C159.531 35.9698 160.683 35.7891 161.719 35.4266L162.164 37.1974C160.954 37.6712 159.524 37.9069 157.875 37.9069C155.891 37.9069 154.334 37.3828 153.2 36.3359C152.07 35.289 151.503 33.8831 151.503 32.1195C151.503 30.3882 152.03 28.9464 153.084 27.7966C154.188 26.569 155.68 25.9552 157.558 25.9552C159.402 25.9552 160.798 26.569 161.746 27.7966C162.496 28.7717 162.874 29.9778 162.874 31.41ZM160.163 30.7483C160.182 29.9921 159.996 29.3389 159.611 28.7873C159.119 28.0778 158.363 27.7236 157.346 27.7236C156.416 27.7236 155.66 28.0694 155.083 28.7634C154.61 29.3149 154.328 29.9766 154.242 30.7471H160.163V30.7483Z" fill="white"/>
<path d="M65.4007 11.9755C65.4007 13.3838 64.93 14.4439 63.99 15.1558C63.1194 15.8127 61.882 16.1417 60.2794 16.1417C59.4847 16.1417 58.8047 16.1106 58.2354 16.0484V8.35376C58.978 8.24608 59.778 8.19104 60.642 8.19104C62.1687 8.19104 63.3194 8.48897 64.0954 9.08482C64.9647 9.75844 65.4007 10.7216 65.4007 11.9755ZM63.9274 12.0102C63.9274 11.0973 63.658 10.3974 63.1194 9.9092C62.5807 9.42223 61.794 9.17814 60.758 9.17814C60.318 9.17814 59.9434 9.20446 59.6327 9.2595V15.1091C59.8047 15.1331 60.1194 15.1438 60.5767 15.1438C61.646 15.1438 62.4714 14.877 63.0527 14.3434C63.634 13.8097 63.9274 13.032 63.9274 12.0102Z" fill="white"/>
<path d="M73.2126 13.2051C73.2126 14.0725 72.9366 14.7833 72.3846 15.3408C71.806 15.9139 71.0393 16.1999 70.082 16.1999C69.1593 16.1999 68.4246 15.9259 67.8766 15.3755C67.33 14.8263 67.0566 14.1336 67.0566 13.2984C67.0566 12.425 67.338 11.7083 67.9033 11.1519C68.4686 10.5956 69.2286 10.3168 70.186 10.3168C71.1086 10.3168 71.85 10.5908 72.4113 11.14C72.9446 11.6736 73.2126 12.3628 73.2126 13.2051ZM71.7633 13.2458C71.7633 12.7253 71.638 12.279 71.3886 11.9069C71.0953 11.457 70.678 11.2321 70.1353 11.2321C69.574 11.2321 69.1473 11.457 68.854 11.9069C68.6033 12.279 68.4793 12.7325 68.4793 13.2685C68.4793 13.789 68.6046 14.2353 68.854 14.6074C69.1566 15.0573 69.578 15.2822 70.122 15.2822C70.6553 15.2822 71.074 15.0537 71.3753 14.5954C71.634 14.2161 71.7633 13.7662 71.7633 13.2458Z" fill="white"/>
<path d="M83.6877 10.4315L81.721 16.0718H80.4411L79.6264 13.6226C79.4197 13.0111 79.2517 12.4033 79.121 11.8003H79.0957C78.9744 12.4201 78.8064 13.0267 78.5904 13.6226L77.725 16.0718H76.4304L74.5811 10.4315H76.0171L76.7277 13.1128C76.8997 13.747 77.0411 14.3512 77.1544 14.9231H77.1797C77.2837 14.4517 77.4557 13.8511 77.6984 13.1248L78.5904 10.4327H79.7291L80.5837 13.0674C80.7904 13.7099 80.9584 14.3285 81.0877 14.9243H81.1264C81.2211 14.344 81.3637 13.7254 81.5531 13.0674L82.3157 10.4327H83.6877V10.4315Z" fill="white"/>
<path d="M90.9312 16.0722H89.5339V12.8417C89.5339 11.8462 89.1125 11.3484 88.2672 11.3484C87.8525 11.3484 87.5179 11.4848 87.2579 11.7588C87.0005 12.0328 86.8699 12.3559 86.8699 12.7256V16.071H85.4725V12.0436C85.4725 11.5483 85.4552 11.011 85.4219 10.4295H86.6499L86.7152 11.3113H86.7539C86.9165 11.0374 87.1592 10.8112 87.4779 10.6305C87.8565 10.42 88.2805 10.3135 88.7445 10.3135C89.3312 10.3135 89.8192 10.4834 90.2072 10.8244C90.6899 11.242 90.9312 11.8653 90.9312 12.6933V16.0722Z" fill="white"/>
<path d="M94.7847 16.0721H93.3887V7.84387H94.7847V16.0721Z" fill="white"/>
<path d="M103.011 13.2051C103.011 14.0725 102.735 14.7833 102.183 15.3408C101.605 15.9139 100.837 16.1999 99.8808 16.1999C98.9568 16.1999 98.2221 15.9259 97.6755 15.3755C97.1288 14.8263 96.8555 14.1336 96.8555 13.2984C96.8555 12.425 97.1368 11.7083 97.7021 11.1519C98.2675 10.5956 99.0275 10.3168 99.9835 10.3168C100.907 10.3168 101.647 10.5908 102.21 11.14C102.743 11.6736 103.011 12.3628 103.011 13.2051ZM101.561 13.2458C101.561 12.7253 101.435 12.279 101.186 11.9069C100.894 11.457 100.475 11.2321 99.9341 11.2321C99.3715 11.2321 98.9448 11.457 98.6528 11.9069C98.4021 12.279 98.2781 12.7325 98.2781 13.2685C98.2781 13.789 98.4035 14.2353 98.6528 14.6074C98.9555 15.0573 99.3768 15.2822 99.9208 15.2822C100.454 15.2822 100.871 15.0537 101.173 14.5954C101.433 14.2161 101.561 13.7662 101.561 13.2458Z" fill="white"/>
<path d="M109.774 16.0719H108.52L108.416 15.4222H108.377C107.948 15.9403 107.336 16.1999 106.541 16.1999C105.948 16.1999 105.468 16.0288 105.106 15.689C104.778 15.3803 104.614 14.9962 104.614 14.5404C104.614 13.8512 104.934 13.3259 105.578 12.9622C106.221 12.5985 107.125 12.4202 108.289 12.4286V12.3233C108.289 11.5803 107.854 11.2094 106.984 11.2094C106.364 11.2094 105.817 11.3493 105.345 11.6269L105.061 10.8037C105.645 10.4795 106.366 10.3168 107.217 10.3168C108.86 10.3168 109.684 11.0945 109.684 12.6499V14.727C109.684 15.2906 109.714 15.7393 109.774 16.0719ZM108.324 14.1336V13.2637C106.782 13.2398 106.012 13.6191 106.012 14.4004C106.012 14.6947 106.1 14.9149 106.28 15.062C106.46 15.2092 106.689 15.2822 106.962 15.2822C107.269 15.2822 107.556 15.1949 107.817 15.0214C108.08 14.8467 108.241 14.6253 108.301 14.3537C108.316 14.2927 108.324 14.2185 108.324 14.1336Z" fill="white"/>
<path d="M117.714 16.0721H116.474L116.409 15.1664H116.37C115.974 15.8556 115.299 16.2001 114.351 16.2001C113.594 16.2001 112.963 15.9333 112.463 15.3997C111.963 14.8661 111.714 14.1733 111.714 13.3226C111.714 12.4097 111.985 11.6702 112.529 11.1055C113.055 10.579 113.701 10.3158 114.469 10.3158C115.313 10.3158 115.903 10.5707 116.239 11.0816H116.266V7.84387H117.665V14.5526C117.665 15.1018 117.681 15.6079 117.714 16.0721ZM116.266 13.6935V12.7531C116.266 12.5903 116.253 12.4587 116.227 12.3582C116.149 12.0567 115.979 11.803 115.722 11.5984C115.462 11.3939 115.149 11.291 114.787 11.291C114.266 11.291 113.858 11.4764 113.558 11.8485C113.261 12.2206 113.11 12.6956 113.11 13.2759C113.11 13.8335 113.253 14.2858 113.539 14.6339C113.842 15.0048 114.25 15.1903 114.761 15.1903C115.219 15.1903 115.586 15.036 115.865 14.7261C116.134 14.4401 116.266 14.0955 116.266 13.6935Z" fill="white"/>
<path d="M129.665 13.2051C129.665 14.0725 129.389 14.7833 128.837 15.3408C128.258 15.9139 127.493 16.1999 126.534 16.1999C125.613 16.1999 124.878 15.9259 124.329 15.3755C123.782 14.8263 123.509 14.1336 123.509 13.2984C123.509 12.425 123.79 11.7083 124.355 11.1519C124.921 10.5956 125.681 10.3168 126.639 10.3168C127.561 10.3168 128.303 10.5908 128.863 11.14C129.397 11.6736 129.665 12.3628 129.665 13.2051ZM128.217 13.2458C128.217 12.7253 128.091 12.279 127.842 11.9069C127.547 11.457 127.131 11.2321 126.587 11.2321C126.027 11.2321 125.601 11.457 125.306 11.9069C125.055 12.279 124.931 12.7325 124.931 13.2685C124.931 13.789 125.057 14.2353 125.306 14.6074C125.609 15.0573 126.03 15.2822 126.574 15.2822C127.107 15.2822 127.527 15.0537 127.829 14.5954C128.086 14.2161 128.217 13.7662 128.217 13.2458Z" fill="white"/>
<path d="M137.179 16.0722H135.783V12.8417C135.783 11.8462 135.362 11.3484 134.515 11.3484C134.1 11.3484 133.766 11.4848 133.507 11.7588C133.248 12.0328 133.119 12.3559 133.119 12.7256V16.071H131.72V12.0436C131.72 11.5483 131.704 11.011 131.671 10.4295H132.898L132.963 11.3113H133.002C133.166 11.0374 133.408 10.8112 133.726 10.6305C134.106 10.42 134.528 10.3135 134.994 10.3135C135.579 10.3135 136.067 10.4834 136.455 10.8244C136.939 11.242 137.179 11.8653 137.179 12.6933V16.0722Z" fill="white"/>
<path d="M146.581 11.3713H145.042V14.1112C145.042 14.8076 145.316 15.1558 145.857 15.1558C146.108 15.1558 146.316 15.1366 146.48 15.0971L146.516 16.0483C146.24 16.1417 145.877 16.1883 145.43 16.1883C144.878 16.1883 144.449 16.0376 144.138 15.736C143.826 15.4345 143.672 14.9272 143.672 14.2153V11.3713H142.753V10.432H143.672V9.39825L145.041 9.02734V10.4308H146.58V11.3713H146.581Z" fill="white"/>
<path d="M153.979 16.0722H152.581V12.8657C152.581 11.8546 152.159 11.3485 151.315 11.3485C150.667 11.3485 150.225 11.6416 149.982 12.2279C149.941 12.3512 149.917 12.5019 149.917 12.679V16.071H148.521V7.84399H149.917V11.2432H149.943C150.383 10.6246 151.014 10.3159 151.831 10.3159C152.41 10.3159 152.889 10.4858 153.269 10.8268C153.742 11.2516 153.979 11.8833 153.979 12.7185V16.0722Z" fill="white"/>
<path d="M161.609 12.9853C161.609 13.2103 161.591 13.3993 161.557 13.5537H157.367C157.385 14.1112 157.585 14.536 157.973 14.8303C158.328 15.0935 158.785 15.2252 159.345 15.2252C159.965 15.2252 160.531 15.1366 161.04 14.9583L161.259 15.8294C160.663 16.0615 159.961 16.1776 159.149 16.1776C158.176 16.1776 157.409 15.9203 156.855 15.4058C156.297 14.8913 156.021 14.201 156.021 13.3347C156.021 12.484 156.279 11.7757 156.797 11.2109C157.339 10.6079 158.071 10.3064 158.995 10.3064C159.899 10.3064 160.585 10.6079 161.049 11.2109C161.424 11.6895 161.609 12.2818 161.609 12.9853ZM160.276 12.6611C160.287 12.289 160.195 11.9683 160.005 11.6979C159.763 11.3497 159.393 11.175 158.893 11.175C158.437 11.175 158.065 11.3449 157.781 11.6859C157.549 11.9575 157.412 12.2818 157.367 12.6611H160.276Z" fill="white"/>
</svg>
