<svg width="544" height="414" viewBox="0 0 544 414" fill="none" xmlns="http://www.w3.org/2000/svg">
<g clip-path="url(#clip0_186_704)">
<path d="M217.682 85.8541H215.697V31.4738C215.697 27.3406 214.883 23.2479 213.302 19.4293C211.721 15.6108 209.403 12.1411 206.481 9.21848C203.559 6.29587 200.09 3.97752 196.273 2.39581C192.455 0.814103 188.364 3.50197e-06 184.232 0H69.05C60.7049 -1.59129e-05 52.7015 3.31594 46.8005 9.21841C40.8996 15.1209 37.5845 23.1264 37.5845 31.4737V329.808C37.5845 333.941 38.3983 338.034 39.9796 341.853C41.5609 345.671 43.8786 349.141 46.8005 352.063C49.7223 354.986 53.1911 357.304 57.0086 358.886C60.8262 360.468 64.9178 361.282 69.0499 361.282H184.231C192.577 361.282 200.58 357.966 206.481 352.063C212.382 346.161 215.697 338.156 215.697 329.808V124.563H217.682V85.8541Z" fill="#3F3D56"/>
<path d="M185.501 8.18842H170.466C171.158 9.884 171.422 11.7237 171.235 13.5453C171.048 15.367 170.416 17.1147 169.395 18.6346C168.374 20.1545 166.995 21.3998 165.379 22.2609C163.763 23.1221 161.961 23.5725 160.13 23.5727H94.1439C92.3132 23.5725 90.5106 23.1221 88.8949 22.2609C87.2792 21.3998 85.9001 20.1545 84.8789 18.6346C83.8577 17.1147 83.2259 15.367 83.0391 13.5453C82.8523 11.7237 83.1163 9.884 83.8077 8.18842H69.765C66.6791 8.18841 63.6235 8.79637 60.7726 9.97757C57.9217 11.1588 55.3313 12.8901 53.1493 15.0727C50.9673 17.2552 49.2364 19.8463 48.0555 22.698C46.8746 25.5497 46.2668 28.6061 46.2668 31.6927V329.589C46.2668 332.676 46.8747 335.732 48.0555 338.584C49.2364 341.436 50.9673 344.027 53.1493 346.209C55.3313 348.392 57.9217 350.123 60.7726 351.304C63.6235 352.486 66.6791 353.094 69.7649 353.094H185.501C188.587 353.094 191.643 352.486 194.493 351.304C197.344 350.123 199.935 348.392 202.117 346.209C204.299 344.027 206.03 341.436 207.211 338.584C208.391 335.732 208.999 332.676 208.999 329.589V31.6927C208.999 28.6061 208.391 25.5497 207.211 22.698C206.03 19.8463 204.299 17.2552 202.117 15.0727C199.935 12.8901 197.344 11.1588 194.493 9.97757C191.643 8.79637 188.587 8.18841 185.501 8.18842Z" fill="white"/>
<path d="M254.599 361.333H0.666491C0.489726 361.333 0.320201 361.263 0.19521 361.138C0.0702189 361.013 0 360.843 0 360.667C0 360.49 0.0702189 360.32 0.19521 360.195C0.320201 360.07 0.489726 360 0.666491 360H254.599C254.776 360 254.946 360.07 255.071 360.195C255.196 360.32 255.266 360.49 255.266 360.667C255.266 360.843 255.196 361.013 255.071 361.138C254.946 361.263 254.776 361.333 254.599 361.333Z" fill="#CBCBCB"/>
<path d="M127.633 230.453C158.717 230.453 183.916 205.248 183.916 174.156C183.916 143.064 158.717 117.858 127.633 117.858C96.5489 117.858 71.3503 143.064 71.3503 174.156C71.3503 205.248 96.5489 230.453 127.633 230.453Z" fill="#40A4BD"/>
<path d="M122.056 195.632C120.789 195.634 119.557 195.224 118.544 194.464L118.481 194.417L105.254 184.296C104.641 183.826 104.127 183.24 103.741 182.572C103.355 181.903 103.104 181.165 103.003 180.4C102.902 179.634 102.952 178.856 103.152 178.111C103.351 177.365 103.696 176.665 104.165 176.053C104.635 175.44 105.221 174.926 105.889 174.539C106.557 174.153 107.295 173.902 108.06 173.801C108.826 173.7 109.603 173.75 110.349 173.95C111.095 174.149 111.794 174.494 112.407 174.964L120.974 181.535L141.219 155.116C141.689 154.504 142.274 153.989 142.942 153.603C143.611 153.217 144.348 152.966 145.113 152.865C145.878 152.764 146.655 152.815 147.401 153.014C148.146 153.214 148.845 153.558 149.457 154.028L149.459 154.029L149.333 154.203L149.462 154.029C150.698 154.979 151.506 156.38 151.71 157.925C151.914 159.47 151.496 161.033 150.549 162.271L126.736 193.332C126.185 194.047 125.477 194.626 124.666 195.024C123.855 195.422 122.964 195.627 122.061 195.625L122.056 195.632Z" fill="white"/>
<path d="M462.708 366.867C463.392 365.759 464.199 364.732 465.111 363.803C465.487 363.413 465.884 363.045 466.293 362.687C468.782 360.472 471.816 358.959 475.082 358.305C478.349 357.651 481.731 357.879 484.88 358.966C488.03 360.052 490.833 361.959 493.002 364.488C495.17 367.018 496.626 370.08 497.22 373.359C499.969 363.191 492.813 353.175 485.619 345.482C478.421 337.791 470.194 329.354 470.236 318.816C470.256 312.952 473.123 307.721 477.453 303.843C477.587 303.725 477.72 303.608 477.857 303.495C483.09 299.008 489.823 296.661 496.71 296.922C509.506 297.608 520.679 306.21 528.438 316.414C540.928 332.832 546.4 355.879 537.657 374.568C529.966 391.006 513.564 400.767 496.824 408.614C494.487 409.71 492.154 410.773 489.826 411.803C489.811 411.807 489.794 411.818 489.778 411.822C489.666 411.871 489.554 411.921 489.449 411.971C488.969 412.183 488.488 412.396 488.011 412.605L488.232 412.749L488.92 413.195C488.682 413.05 488.446 412.91 488.207 412.766C488.136 412.722 488.061 412.681 487.99 412.637C479.769 407.702 471.432 402.482 465.752 394.778C459.862 386.78 457.493 375.323 462.708 366.867Z" fill="#F1F1F1"/>
<path d="M517.562 348.291C519.383 352.434 520.59 356.82 521.145 361.311C521.582 365.315 521.417 369.363 520.658 373.319C519.025 381.449 515.464 389.067 510.275 395.534C506.361 400.444 501.841 404.838 496.824 408.614C494.487 409.71 492.154 410.773 489.826 411.803C489.811 411.807 489.794 411.818 489.778 411.822C489.666 411.871 489.554 411.921 489.449 411.971C488.969 412.183 488.488 412.396 488.012 412.605L488.232 412.749L488.921 413.195C488.682 413.05 488.446 412.91 488.207 412.766C488.136 412.722 488.061 412.681 487.991 412.637C489.8 406.306 490.066 399.634 488.766 393.179C487.466 386.725 484.639 380.676 480.521 375.539C476.381 370.467 471.101 366.446 465.111 363.803C465.487 363.413 465.884 363.045 466.293 362.687C468.6 363.747 470.809 365.008 472.894 366.457C480.351 371.612 485.95 379.032 488.862 387.617C491.463 395.406 491.788 403.776 489.799 411.743C490.211 411.473 490.625 411.196 491.028 410.92C498.688 405.754 505.747 399.549 511.064 391.94C515.65 385.509 518.584 378.049 519.609 370.217C520.628 361.661 518.488 353.247 514.669 345.613C510.452 337.446 505.138 329.894 498.876 323.166C492.586 316.254 485.473 310.137 477.697 304.952C477.522 304.834 477.399 304.652 477.354 304.446C477.308 304.24 477.344 304.024 477.453 303.843C477.537 303.678 477.682 303.553 477.857 303.495C477.946 303.472 478.039 303.469 478.129 303.488C478.219 303.506 478.303 303.544 478.376 303.6C479.336 304.24 480.288 304.887 481.228 305.553C489.059 311.099 496.17 317.596 502.399 324.896C508.419 331.933 513.896 339.751 517.562 348.291Z" fill="white"/>
<path d="M349.936 26.1404C356.537 26.1404 361.888 20.7874 361.888 14.1843C361.888 7.58117 356.537 2.22827 349.936 2.22827C343.334 2.22827 337.983 7.58117 337.983 14.1843C337.983 20.7874 343.334 26.1404 349.936 26.1404Z" fill="#F1F1F1"/>
<path d="M498.563 186.14C502.588 186.14 505.85 182.877 505.85 178.851C505.85 174.825 502.588 171.562 498.563 171.562C494.538 171.562 491.275 174.825 491.275 178.851C491.275 182.877 494.538 186.14 498.563 186.14Z" fill="#F1F1F1"/>
<path d="M285.286 206.14C289.311 206.14 292.573 202.877 292.573 198.851C292.573 194.825 289.311 191.562 285.286 191.562C281.261 191.562 277.999 194.825 277.999 198.851C277.999 202.877 281.261 206.14 285.286 206.14Z" fill="#F1F1F1"/>
<path d="M289.401 414H543.334C543.51 414 543.68 413.93 543.805 413.805C543.93 413.68 544 413.51 544 413.333C544 413.156 543.93 412.987 543.805 412.862C543.68 412.737 543.51 412.667 543.334 412.667H289.401C289.224 412.667 289.054 412.737 288.929 412.862C288.804 412.987 288.734 413.156 288.734 413.333C288.734 413.51 288.804 413.68 288.929 413.805C289.054 413.93 289.224 414 289.401 414Z" fill="#CBCBCB"/>
<path d="M515.31 64.4233C515.644 62.0554 515.097 59.6474 513.774 57.6556C512.451 55.6638 510.444 54.2266 508.132 53.6163C505.821 53.0061 503.366 53.2652 501.233 54.3445C499.099 55.4238 497.436 57.2484 496.558 59.4725L475.952 83.1021L481.998 99.9933L502.721 72.3831C504.073 72.8164 505.504 72.9478 506.913 72.7681C508.321 72.5885 509.673 72.1021 510.874 71.3432C512.074 70.5843 513.093 69.5714 513.86 68.3758C514.626 67.1802 515.122 65.8311 515.31 64.4233Z" fill="#FFB7B7"/>
<path d="M429.895 156.366L498.297 83.3467L489.07 68.6747L403.278 141.251L429.895 156.366Z" fill="#3F3D56"/>
<path d="M414.629 112C427.88 112 438.623 101.255 438.623 88C438.623 74.7452 427.88 64 414.629 64C401.378 64 390.635 74.7452 390.635 88C390.635 101.255 401.378 112 414.629 112Z" fill="#2F2E41"/>
<path d="M416.558 74.4422C421.721 69.2051 427.969 65.1638 434.862 62.6027C439.286 60.9631 444.102 59.9501 448.728 60.8812C453.354 61.8123 457.728 65.0133 459.019 69.5531C460.074 73.2653 458.984 77.2622 457.347 80.7567C455.709 84.2512 453.523 87.4917 452.198 91.1166C450.847 94.8153 450.441 98.793 451.016 102.689C451.591 106.584 453.13 110.274 455.493 113.424C457.856 116.574 460.968 119.084 464.547 120.725C468.125 122.367 472.057 123.089 475.985 122.825C471.44 123.434 467.25 125.571 462.808 126.708C458.365 127.845 453.122 127.768 449.82 124.585C446.327 121.216 446.257 115.74 446.426 110.89C446.677 103.68 446.928 96.4696 447.179 89.2596C447.307 85.5827 447.417 81.7879 446.091 78.3559C444.765 74.924 441.615 71.9188 437.937 71.9501C435.149 71.9737 432.682 73.6629 430.446 75.3287C428.211 76.9946 425.845 78.7719 423.068 79.0197C420.291 79.2675 417.121 77.212 417.329 74.4313L416.558 74.4422Z" fill="#2F2E41"/>
<path d="M323.499 249.149C321.196 249.789 318.738 249.561 316.591 248.51C314.444 247.458 312.757 245.655 311.85 243.442C310.943 241.23 310.879 238.761 311.67 236.505C312.461 234.248 314.052 232.36 316.142 231.199L336.87 207.676L354.402 211.465L329.744 235.624C330.35 236.908 330.667 238.31 330.673 239.73C330.679 241.151 330.374 242.555 329.778 243.844C329.183 245.134 328.312 246.277 327.228 247.193C326.143 248.11 324.87 248.777 323.499 249.149Z" fill="#FFB7B7"/>
<path d="M391.695 164.937L340.032 229.803L324.284 222.571L385.008 128.008L391.695 164.937Z" fill="#3F3D56"/>
<path d="M350.473 360.807L338.16 360.614L339.641 402.591H350.471L350.473 360.807Z" fill="#FFB7B7"/>
<path d="M353.234 399.055L331.905 399.054H331.904C328.299 399.054 324.842 400.486 322.293 403.036C319.744 405.586 318.312 409.044 318.312 412.649V413.091L353.233 413.092L353.234 399.055Z" fill="#2F2E41"/>
<path d="M431.996 349.674L418.546 358.311L445.451 390.688L454.564 384.835L431.996 349.674Z" fill="#FFB7B7"/>
<path d="M454.978 380.366L437.03 391.892L437.03 391.892C433.996 393.841 431.861 396.914 431.093 400.437C430.325 403.96 430.988 407.644 432.936 410.678L433.174 411.05L462.56 392.179L454.978 380.366Z" fill="#2F2E41"/>
<path d="M436.788 221.493C436.788 221.493 406.903 122.208 397.298 120.867C387.694 119.525 372.22 146.342 372.22 146.342C352.156 171.948 331.468 254.889 331.468 254.889C331.468 254.889 365.956 257.048 391.168 270.465C416.379 283.882 446.132 269.786 446.132 269.786L436.788 221.493Z" fill="#3F3D56"/>
<path opacity="0.1" d="M436.788 221.493C436.788 221.493 406.903 122.208 397.298 120.867C387.694 119.525 376.15 146.614 376.15 146.614C366.153 187.948 331.468 254.889 331.468 254.889C331.468 254.889 365.956 257.048 391.168 270.465C416.379 283.882 446.132 269.786 446.132 269.786L436.788 221.493Z" fill="black"/>
<path d="M412.269 191.788V241.678L418.139 313.947L447.465 368.614L433.468 378.614L393.479 326.614L377.662 274.981L352.823 389.281L334.161 387.947L347.122 229.473L371.716 184.867L412.269 191.788Z" fill="#2F2E41"/>
<path d="M382.137 143.533C372.807 152.866 381.471 162.866 381.471 162.866L370.807 186.866L412.796 198.2L427.47 132.614L417.472 121.948C397.478 121.281 397.467 120.866 397.467 120.866C393.964 124.296 382.137 143.533 382.137 143.533Z" fill="#40A4BD"/>
<path d="M429.161 125.82C427.254 124.412 425.086 123.396 422.784 122.832C420.482 122.267 418.09 122.166 415.749 122.532C413.407 122.899 411.161 123.727 409.141 124.968C407.122 126.209 405.368 127.838 403.982 129.762C393.427 144.463 383.666 168.202 397.114 197.81C418.708 245.349 437.499 269.686 445.138 269.683C445.472 269.686 445.804 269.634 446.12 269.529C450.823 267.933 457.621 259.974 458.852 252.961C459.293 250.45 459.188 246.953 456.186 244.552C447.565 237.655 432.088 216.178 427.259 187.91C424.591 172.29 429.766 158.062 434.576 148.877C436.608 145.076 437.202 140.67 436.25 136.467C435.298 132.263 432.864 128.544 429.393 125.991L429.161 125.82Z" fill="#3F3D56"/>
<path d="M415.863 109.642C424.422 104.962 427.568 94.2278 422.889 85.6664C418.21 77.1051 407.479 73.9586 398.92 78.6387C390.36 83.3188 387.215 94.0531 391.894 102.615C396.573 111.176 407.304 114.322 415.863 109.642Z" fill="#FFB7B7"/>
<path d="M382.552 92.8047H408.056L408.317 89.1422L409.625 92.8047H413.552L414.07 85.5457L416.662 92.8047H424.261V92.4451C424.255 87.3915 422.245 82.5464 418.673 78.9729C415.1 75.3995 410.257 73.3894 405.204 73.3837H401.609C396.556 73.3894 391.713 75.3994 388.14 78.9729C384.568 82.5464 382.558 87.3915 382.552 92.4451V92.8047Z" fill="#2F2E41"/>
<path d="M420.408 105.97L431.291 102.437V76H410.734L411.243 76.5083C418.324 83.5822 426.2 108.68 420.408 105.97Z" fill="#2F2E41"/>
</g>
<defs>
<clipPath id="clip0_186_704">
<rect width="544" height="414" fill="white"/>
</clipPath>
</defs>
</svg>
