<svg width="180" height="48" viewBox="0 0 180 48" fill="none" xmlns="http://www.w3.org/2000/svg">
<path d="M173.333 47.8594H6.66667C3.00167 47.8594 0 45.1658 0 41.8769V5.98231C0 2.69347 3.00167 -0.000121 6.66667 -0.000121H173.333C176.998 -0.000121 180 2.69347 180 5.98231V41.8769C180 45.1658 176.998 47.8594 173.333 47.8594Z" fill="black"/>
<path d="M173.333 0.958564C176.42 0.958564 178.932 3.21245 178.932 5.98231V41.8769C178.932 44.6468 176.42 46.9007 173.333 46.9007H6.66667C3.58 46.9007 1.06833 44.6468 1.06833 41.8769V5.98231C1.06833 3.21245 3.58 0.958564 6.66667 0.958564H173.333ZM173.333 -0.000121H6.66667C3.00167 -0.000121 0 2.69347 0 5.98231V41.8769C0 45.1658 3.00167 47.8594 6.66667 47.8594H173.333C176.998 47.8594 180 45.1658 180 41.8769V5.98231C180 2.69347 176.998 -0.000121 173.333 -0.000121Z" fill="#A6A6A6"/>
<path d="M63.2231 12.2567C63.2231 13.2558 62.8897 14.056 62.2331 14.6527C61.4781 15.3601 60.4947 15.7161 59.2897 15.7161C58.1381 15.7161 57.1547 15.3541 56.3481 14.6407C55.5397 13.9169 55.1364 13.0285 55.1364 11.9651C55.1364 10.9017 55.5397 10.0133 56.3481 9.29544C57.1547 8.57605 58.1381 8.21411 59.2897 8.21411C59.8631 8.21411 60.4097 8.3203 60.9314 8.51772C61.4514 8.71664 61.8747 8.98585 62.1814 9.31787L61.4847 9.94902C60.9497 9.38218 60.2214 9.1025 59.2897 9.1025C58.4497 9.1025 57.7214 9.36573 57.1031 9.89667C56.4914 10.4291 56.1847 11.1186 56.1847 11.9651C56.1847 12.8116 56.4914 13.5071 57.1031 14.0395C57.7214 14.5645 58.4497 14.8337 59.2897 14.8337C60.1814 14.8337 60.9314 14.5645 61.5231 14.0335C61.9131 13.6821 62.1347 13.1975 62.1931 12.5783H59.2897V11.7138H63.1631C63.2097 11.9008 63.2231 12.0818 63.2231 12.2567Z" fill="white" stroke="white" stroke-width="0.16" stroke-miterlimit="10"/>
<path d="M69.3685 9.25909H65.7301V11.5324H69.0101V12.3969H65.7301V14.6702H69.3685V15.5511H64.7001V8.37817H69.3685V9.25909Z" fill="white" stroke="white" stroke-width="0.16" stroke-miterlimit="10"/>
<path d="M73.7053 15.5511H72.6753V9.25909H70.4436V8.37817H75.9386V9.25909H73.7053V15.5511Z" fill="white" stroke="white" stroke-width="0.16" stroke-miterlimit="10"/>
<path d="M79.9148 15.5511V8.37817H80.9429V15.5511H79.9148Z" fill="white" stroke="white" stroke-width="0.16" stroke-miterlimit="10"/>
<path d="M85.502 15.5511H84.4803V9.25909H82.2404V8.37817H87.742V9.25909H85.502V15.5511Z" fill="white" stroke="white" stroke-width="0.16" stroke-miterlimit="10"/>
<path d="M98.1444 14.6288C97.356 15.3541 96.3794 15.7161 95.2144 15.7161C94.0427 15.7161 93.066 15.3541 92.2777 14.6288C91.491 13.9049 91.0994 13.0165 91.0994 11.9651C91.0994 10.9137 91.491 10.0253 92.2777 9.30142C93.066 8.57605 94.0427 8.21411 95.2144 8.21411C96.3727 8.21411 97.3494 8.57605 98.1377 9.3074C98.931 10.0373 99.3227 10.9197 99.3227 11.9651C99.3227 13.0165 98.931 13.9049 98.1444 14.6288ZM93.0394 14.0275C93.6327 14.5645 94.3544 14.8337 95.2144 14.8337C96.0677 14.8337 96.796 14.5645 97.3827 14.0275C97.9744 13.4906 98.2744 12.8011 98.2744 11.9651C98.2744 11.1291 97.9744 10.4396 97.3827 9.90265C96.796 9.36573 96.0677 9.09652 95.2144 9.09652C94.3544 9.09652 93.6327 9.36573 93.0394 9.90265C92.4477 10.4396 92.1477 11.1291 92.1477 11.9651C92.1477 12.8011 92.4477 13.4906 93.0394 14.0275Z" fill="white" stroke="white" stroke-width="0.16" stroke-miterlimit="10"/>
<path d="M100.768 15.5511V8.37817H102.018L105.905 13.9568H105.95L105.905 12.5778V8.37817H106.933V15.5511H105.86L101.79 9.6973H101.745L101.79 11.0822V15.5511H100.768Z" fill="white" stroke="white" stroke-width="0.16" stroke-miterlimit="10"/>
<path d="M90.847 26.0266C87.7154 26.0266 85.1571 28.1653 85.1571 31.1162C85.1571 34.0431 87.7154 36.2042 90.847 36.2042C93.9854 36.2042 96.5437 34.0431 96.5437 31.1162C96.5437 28.1653 93.9854 26.0266 90.847 26.0266ZM90.847 34.2001C89.1287 34.2001 87.6504 32.9274 87.6504 31.1162C87.6504 29.2811 89.1287 28.0307 90.847 28.0307C92.5654 28.0307 94.0504 29.2811 94.0504 31.1162C94.0504 32.9274 92.5654 34.2001 90.847 34.2001ZM78.4321 26.0266C75.2937 26.0266 72.7421 28.1653 72.7421 31.1162C72.7421 34.0431 75.2937 36.2042 78.4321 36.2042C81.5687 36.2042 84.1221 34.0431 84.1221 31.1162C84.1221 28.1653 81.5687 26.0266 78.4321 26.0266ZM78.4321 34.2001C76.7121 34.2001 75.2287 32.9274 75.2287 31.1162C75.2287 29.2811 76.7121 28.0307 78.4321 28.0307C80.1504 28.0307 81.6287 29.2811 81.6287 31.1162C81.6287 32.9274 80.1504 34.2001 78.4321 34.2001ZM63.6587 27.5865V29.7492H69.4137C69.2454 30.9576 68.7954 31.846 68.1054 32.4652C67.2654 33.213 65.9571 34.0431 63.6587 34.0431C60.1171 34.0431 57.3437 31.4781 57.3437 28.2999C57.3437 25.1218 60.1171 22.5568 63.6587 22.5568C65.5737 22.5568 66.9671 23.2283 67.9954 24.0988L69.6937 22.5747C68.2554 21.3424 66.3421 20.3956 63.6587 20.3956C58.8021 20.3956 54.7204 23.9417 54.7204 28.2999C54.7204 32.6581 58.8021 36.2042 63.6587 36.2042C66.2837 36.2042 68.2554 35.4325 69.8054 33.9847C71.3937 32.5594 71.8887 30.5553 71.8887 28.9371C71.8887 28.4345 71.8421 27.9724 71.7587 27.5865H63.6587ZM124.069 29.2631C123.6 28.125 122.155 26.0266 119.212 26.0266C116.295 26.0266 113.867 28.0891 113.867 31.1162C113.867 33.9668 116.27 36.2042 119.492 36.2042C122.097 36.2042 123.6 34.7789 124.219 33.9489L122.285 32.7927C121.64 33.6393 120.762 34.2001 119.492 34.2001C118.23 34.2001 117.325 33.6811 116.745 32.6581L124.33 29.8419L124.069 29.2631ZM116.335 30.9576C116.27 28.9954 118.034 27.9903 119.297 27.9903C120.287 27.9903 121.127 28.4345 121.407 29.0702L116.335 30.9576ZM110.17 35.8946H112.664V20.9385H110.17V35.8946ZM106.087 27.1603H106.004C105.444 26.565 104.375 26.0266 103.022 26.0266C100.182 26.0266 97.5854 28.264 97.5854 31.1326C97.5854 33.9847 100.182 36.2042 103.022 36.2042C104.375 36.2042 105.444 35.6613 106.004 35.0481H106.087V35.778C106.087 37.7238 104.929 38.7692 103.06 38.7692C101.537 38.7692 100.592 37.7821 100.202 36.952L98.0337 37.7642C98.6587 39.1132 100.314 40.7733 103.06 40.7733C105.984 40.7733 108.45 39.2298 108.45 35.4744V26.3362H106.087V27.1603ZM103.235 34.2001C101.517 34.2001 100.079 32.9094 100.079 31.1326C100.079 29.3394 101.517 28.0307 103.235 28.0307C104.929 28.0307 106.264 29.3394 106.264 31.1326C106.264 32.9094 104.929 34.2001 103.235 34.2001ZM135.742 20.9385H129.779V35.8946H132.265V30.2278H135.742C138.504 30.2278 141.212 28.4345 141.212 25.5824C141.212 22.7318 138.497 20.9385 135.742 20.9385ZM135.807 28.1474H132.265V23.0189H135.807C137.664 23.0189 138.724 24.4024 138.724 25.5824C138.724 26.74 137.664 28.1474 135.807 28.1474ZM151.179 25.9982C149.382 25.9982 147.514 26.7101 146.745 28.288L148.952 29.118C149.427 28.288 150.3 28.0188 151.224 28.0188C152.514 28.0188 153.822 28.7142 153.842 29.9421V30.0992C153.392 29.8658 152.429 29.5204 151.244 29.5204C148.867 29.5204 146.445 30.6944 146.445 32.8855C146.445 34.8896 148.392 36.1803 150.58 36.1803C152.254 36.1803 153.177 35.5028 153.757 34.7146H153.842V35.8707H156.244V30.1336C156.244 27.4818 154.037 25.9982 151.179 25.9982ZM150.879 34.1941C150.065 34.1941 148.932 33.8322 148.932 32.9274C148.932 31.7698 150.345 31.3256 151.569 31.3256C152.664 31.3256 153.177 31.5424 153.842 31.8281C153.647 33.213 152.319 34.1941 150.879 34.1941ZM164.994 26.3257L162.135 32.8092H162.05L159.095 26.3257H156.414L160.854 35.3861L158.32 40.4278H160.919L167.76 26.3257H164.994ZM142.579 35.8946H145.072V20.9385H142.579V35.8946Z" fill="white"/>
<path d="M13.914 9.01994C13.5223 9.38786 13.2957 9.96067 13.2957 10.7025V37.1628C13.2957 37.9046 13.5223 38.4775 13.914 38.8454L14.0107 38.9261L30.534 24.1047V23.7547L14.0107 8.93319L13.914 9.01994Z" fill="url(#paint0_linear_1_809)"/>
<path d="M36.0352 29.0475L30.5335 24.1045V23.7545L36.0418 18.8115L36.1652 18.8758L42.6885 22.2066C44.5502 23.1518 44.5502 24.7072 42.6885 25.6584L36.1652 28.9832L36.0352 29.0475Z" fill="url(#paint1_linear_1_809)"/>
<path d="M36.1646 28.9833L30.533 23.9297L13.913 38.8454C14.5313 39.4287 15.5396 39.499 16.6863 38.9157L36.1646 28.9833Z" fill="url(#paint2_linear_1_809)"/>
<path d="M36.1646 18.876L16.6863 8.94368C15.5396 8.36638 14.5313 8.43667 13.913 9.01996L30.533 23.9297L36.1646 18.876Z" fill="url(#paint3_linear_1_809)"/>
<defs>
<linearGradient id="paint0_linear_1_809" x1="29.0669" y1="37.4384" x2="9.10414" y2="15.1924" gradientUnits="userSpaceOnUse">
<stop stop-color="#00A0FF"/>
<stop offset="0.0066" stop-color="#00A1FF"/>
<stop offset="0.2601" stop-color="#00BEFF"/>
<stop offset="0.5122" stop-color="#00D2FF"/>
<stop offset="0.7604" stop-color="#00DFFF"/>
<stop offset="1" stop-color="#00E3FF"/>
</linearGradient>
<linearGradient id="paint1_linear_1_809" x1="45.1127" y1="23.9278" x2="12.8502" y2="23.9278" gradientUnits="userSpaceOnUse">
<stop stop-color="#FFE000"/>
<stop offset="0.4087" stop-color="#FFBD00"/>
<stop offset="0.7754" stop-color="#FFA500"/>
<stop offset="1" stop-color="#FF9C00"/>
</linearGradient>
<linearGradient id="paint2_linear_1_809" x1="33.1023" y1="21.1824" x2="6.03116" y2="-8.98492" gradientUnits="userSpaceOnUse">
<stop stop-color="#FF3A44"/>
<stop offset="1" stop-color="#C31162"/>
</linearGradient>
<linearGradient id="paint3_linear_1_809" x1="9.72936" y1="47.6486" x2="21.8178" y2="34.1777" gradientUnits="userSpaceOnUse">
<stop stop-color="#32A071"/>
<stop offset="0.0685" stop-color="#2DA771"/>
<stop offset="0.4762" stop-color="#15CF74"/>
<stop offset="0.8009" stop-color="#06E775"/>
<stop offset="1" stop-color="#00F076"/>
</linearGradient>
</defs>
</svg>
